<svg width="78" height="78" viewBox="0 0 78 78" fill="none" xmlns="http://www.w3.org/2000/svg">
<path fill-rule="evenodd" clip-rule="evenodd" d="M39.0001 68.64C57.9545 68.64 73.3201 53.2744 73.3201 34.32C73.3201 15.3656 57.9545 0 39.0001 0C20.0456 0 4.68005 15.3656 4.68005 34.32C4.68005 43.2429 8.08524 51.3705 13.667 57.4741C14.3863 58.2607 14.8201 59.2749 14.8201 60.3408V73.1872C14.8201 76.1365 17.9031 78.0717 20.5591 76.7894L37.4153 68.6519C37.4251 68.6472 37.4249 68.6332 37.415 68.6288C37.4022 68.623 37.4068 68.6037 37.4208 68.6043C37.9443 68.628 38.4708 68.64 39.0001 68.64Z" fill="#D05301"/>
<path fill-rule="evenodd" clip-rule="evenodd" d="M35.8695 36.5652C35.8695 38.222 37.2127 39.5652 38.8695 39.5652H39.1304C40.7872 39.5652 42.1304 38.222 42.1304 36.5652L42.1304 23.0869C42.1304 21.4301 40.7872 20.0869 39.1304 20.0869H38.8695C37.2127 20.0869 35.8695 21.4301 35.8695 23.0869V36.5652ZM38.9999 47.913C40.7288 47.913 42.1304 46.5115 42.1304 44.7826C42.1304 43.0537 40.7288 41.6521 38.9999 41.6521C37.2711 41.6521 35.8695 43.0537 35.8695 44.7826C35.8695 46.5115 37.2711 47.913 38.9999 47.913Z" fill="white"/>
</svg>
