<svg width="78" height="78" viewBox="0 0 78 78" fill="none" xmlns="http://www.w3.org/2000/svg">
<path fill-rule="evenodd" clip-rule="evenodd" d="M47.8055 67.6794C48.1344 67.4706 48.4933 67.3124 48.8664 67.2006C63.0117 62.9621 73.3199 49.8448 73.3199 34.32C73.3199 15.3656 57.9543 0 38.9999 0C20.0455 0 4.67993 15.3656 4.67993 34.32C4.67993 47.8227 12.4777 59.5042 23.8158 65.1068C23.8286 65.1132 23.8233 65.1326 23.8091 65.1315C23.7999 65.1308 23.793 65.1396 23.7957 65.1483L26.9037 74.9903C27.6946 77.4949 30.6437 78.5705 32.8614 77.1631L47.8055 67.6794Z" fill="#940000"/>
<path d="M48.8134 27.6379C49.6418 26.8095 49.6418 25.4664 48.8134 24.638L48.362 24.1865C47.5336 23.3581 46.1904 23.3581 45.362 24.1865L39 30.5486L32.6379 24.1865C31.8095 23.3581 30.4664 23.3581 29.638 24.1865L29.1865 24.638C28.3581 25.4664 28.3581 26.8095 29.1865 27.6379L35.5486 34L29.1865 40.362C28.3581 41.1904 28.3581 42.5336 29.1865 43.362L29.638 43.8134C30.4664 44.6419 31.8095 44.6419 32.6379 43.8134L39 37.4514L45.362 43.8134C46.1904 44.6418 47.5336 44.6419 48.362 43.8134L48.8134 43.362C49.6419 42.5336 49.6418 41.1904 48.8134 40.362L42.4514 34L48.8134 27.6379Z" fill="white"/>
</svg>
